<?xml version="1.0" standalone="no"?>
<!DOCTYPE svg PUBLIC "-//W3C//DTD SVG 20010904//EN"
 "http://www.w3.org/TR/2001/REC-SVG-20010904/DTD/svg10.dtd">
<svg version="1.0" xmlns="http://www.w3.org/2000/svg"
 width="552.000000pt" height="172.000000pt" viewBox="0 0 552.000000 172.000000"
 preserveAspectRatio="xMidYMid meet">
<metadata>
Created by potrace 1.16, written by Peter Selinger 2001-2019
</metadata>
<g transform="translate(0.000000,172.000000) scale(0.100000,-0.100000)"
fill="#000000" stroke="none">
<path d="M2473 1459 c-139 -83 -250 -155 -247 -160 3 -5 116 -9 250 -9 189 0
245 3 242 12 -3 7 -15 15 -29 18 -15 4 -25 14 -27 28 -3 20 -1 21 42 16 53 -8
64 10 19 27 -68 26 -84 78 -33 107 16 9 30 20 30 25 0 4 7 7 15 7 8 0 15 -4
15 -9 0 -5 14 -12 30 -16 32 -7 35 -12 21 -33 -6 -9 -19 -11 -45 -7 -49 10
-47 -9 4 -35 23 -12 43 -27 47 -35 10 -28 -6 -64 -32 -71 -14 -3 -25 -12 -25
-20 0 -12 43 -14 250 -14 150 0 250 4 250 9 0 11 -495 311 -513 311 -7 0 -126
-68 -264 -151z"/>
<path d="M2340 1060 l0 -160 -35 0 c-32 0 -35 -2 -35 -29 0 -23 -5 -30 -22
-33 -20 -3 -23 -9 -23 -43 l0 -40 510 0 510 0 3 43 c3 39 1 42 -22 42 -22 0
-26 4 -26 30 0 28 -3 30 -35 30 l-35 0 0 161 0 160 -47 -3 -48 -3 -3 -157 -3
-158 -64 0 -65 0 0 160 0 160 -50 0 -50 0 0 -160 0 -160 -65 0 -65 0 0 160 0
160 -50 0 -50 0 0 -160 0 -160 -65 0 -65 0 0 160 0 160 -50 0 -50 0 0 -160z"/>
<path d="M492 550 c-49 -12 -107 -54 -125 -93 -21 -43 -22 -138 -3 -175 46
-88 171 -129 256 -83 41 22 49 50 21 75 -19 17 -23 18 -62 2 -72 -29 -136 6
-146 81 -10 79 75 134 151 98 35 -17 38 -17 57 1 11 10 19 27 17 38 -6 40
-100 72 -166 56z"/>
<path d="M3662 537 c-21 -24 -152 -298 -152 -315 0 -25 20 -42 47 -42 16 0 28
11 43 40 l20 40 70 0 70 0 20 -40 c23 -45 55 -53 83 -22 16 18 13 28 -58 171
-41 85 -80 160 -86 167 -14 18 -43 18 -57 1z"/>
<path d="M2462 528 c-7 -7 -12 -26 -12 -44 0 -23 -5 -33 -20 -37 -28 -7 -29
-77 -1 -84 15 -4 20 -16 23 -68 4 -73 23 -101 74 -111 53 -10 76 2 72 39 -2
24 -9 33 -28 37 -22 5 -25 12 -28 52 -3 46 -3 47 30 50 30 3 33 6 36 40 3 33
0 38 -22 44 -14 3 -30 3 -35 -1 -7 -4 -11 8 -11 32 0 44 -14 63 -45 63 -12 0
-26 -5 -33 -12z"/>
<path d="M754 431 c-34 -21 -64 -75 -64 -116 0 -113 140 -178 224 -105 69 61
69 149 1 209 -29 25 -44 31 -83 31 -28 0 -59 -8 -78 -19z"/>
<path d="M1074 440 c-11 -4 -33 -22 -47 -40 -35 -41 -38 -123 -6 -164 83 -105
249 -53 249 79 0 98 -102 163 -196 125z"/>
<path d="M1321 436 c-8 -9 -11 -68 -9 -187 l3 -174 38 -3 37 -3 0 65 0 66 45
-7 c33 -4 51 -1 70 11 37 24 65 75 65 116 0 76 -81 144 -144 120 -18 -7 -33
-7 -46 0 -26 14 -45 13 -59 -4z"/>
<path d="M1663 430 c-46 -28 -66 -72 -60 -134 4 -41 10 -55 41 -83 33 -31 40
-33 105 -33 50 0 74 4 85 16 19 18 19 20 5 45 -9 18 -17 20 -59 14 -49 -7 -96
7 -85 26 4 5 37 9 74 9 39 0 72 5 79 12 15 15 15 60 0 93 -25 54 -123 73 -185
35z"/>
<path d="M1912 442 c-9 -7 -12 -40 -10 -133 l3 -124 35 0 35 0 3 77 c3 87 13
100 70 102 30 1 38 6 46 28 17 49 -42 79 -89 44 -16 -11 -21 -11 -33 0 -15 16
-40 18 -60 6z"/>
<path d="M2184 436 c-97 -42 -96 -197 1 -243 30 -14 40 -15 71 -4 27 10 38 10
49 1 8 -6 24 -10 37 -8 23 3 23 5 23 133 0 129 0 130 -23 133 -13 2 -31 -3
-40 -11 -15 -13 -20 -14 -36 -1 -24 17 -42 17 -82 0z"/>
<path d="M2663 443 c-10 -3 -13 -39 -13 -129 0 -135 3 -143 55 -130 25 6 25 7
25 130 0 104 -3 125 -16 130 -18 7 -33 7 -51 -1z"/>
<path d="M2776 431 c-18 -20 -18 -23 46 -133 59 -102 68 -113 94 -113 25 0 35
11 92 109 66 112 69 125 30 149 -27 17 -46 0 -83 -74 -20 -39 -38 -69 -40 -67
-3 2 -22 36 -42 74 -42 75 -66 89 -97 55z"/>
<path d="M3154 436 c-97 -42 -96 -197 1 -243 30 -14 40 -15 71 -4 27 10 38 10
49 1 8 -6 24 -10 37 -8 23 3 23 5 23 133 0 129 0 130 -23 133 -13 2 -31 -3
-40 -11 -15 -13 -20 -14 -36 -1 -24 17 -42 17 -82 0z"/>
<path d="M3923 443 c-10 -3 -13 -39 -13 -128 0 -115 1 -124 20 -130 11 -3 29
-3 40 0 17 6 20 15 20 75 0 72 14 100 48 100 38 0 46 -17 50 -95 5 -82 12 -92
57 -81 24 6 25 9 25 87 0 44 -5 90 -11 102 -33 64 -87 89 -136 64 -24 -13 -30
-13 -41 -1 -13 14 -36 17 -59 7z"/>
<path d="M4233 443 c-10 -3 -13 -39 -13 -129 0 -135 3 -143 55 -130 24 6 25
10 25 80 0 81 16 110 48 89 13 -7 18 -30 22 -89 l5 -79 35 0 35 0 5 77 c5 84
19 110 48 92 13 -9 18 -28 20 -87 3 -72 4 -77 27 -83 50 -12 55 -3 55 104 0
84 -3 103 -20 125 -30 37 -75 44 -112 17 -26 -19 -31 -20 -46 -7 -28 25 -69
31 -96 13 -21 -13 -26 -13 -36 -1 -12 15 -34 18 -57 8z"/>
<path d="M4715 434 c-97 -48 -97 -187 -1 -237 32 -17 43 -18 74 -9 24 8 40 8
46 2 14 -14 50 -12 64 2 17 17 17 229 0 246 -15 15 -51 15 -66 0 -9 -9 -18 -9
-37 0 -33 15 -44 15 -80 -4z"/>
<path d="M4962 438 c-17 -17 -17 -229 0 -246 7 -7 21 -12 33 -12 36 0 45 20
45 97 0 81 11 96 64 86 32 -7 46 8 46 49 0 34 -36 46 -81 28 -23 -10 -33 -10
-42 -1 -14 14 -50 14 -65 -1z"/>
</g>
</svg>
